<?xml version="1.0" encoding="UTF-8"?>
<svg width="19px" height="16px" viewBox="0 0 19 16" version="1.1" xmlns="http://www.w3.org/2000/svg" xmlns:xlink="http://www.w3.org/1999/xlink">
    <!-- Generator: sketchtool 58 (101010) - https://sketch.com -->
    <title>273B2472-3606-4545-8D7A-D2514AF10350</title>
    <desc>Created with sketchtool.</desc>
    <g id="13.-Landing-page---Dashboard" stroke="none" stroke-width="1" fill="none" fill-rule="evenodd">
        <g id="01.-Landing-page" transform="translate(-746.000000, -685.000000)">
            <g id="Group-3" transform="translate(207.000000, 589.000000)">
                <g id="Group-2" transform="translate(536.000000, 92.000000)">
                    <g id="Icon-/-24px-/-Donors">
                        <rect id="Base" fill="#FFFFFF" opacity="0" x="0" y="0" width="24" height="24"></rect>
                        <g id="users-copy" stroke-width="1" transform="translate(4.000000, 5.000000)" stroke="#262626" stroke-linecap="round" stroke-linejoin="round">
                            <path d="M12.5925926,14.1666667 L12.5925926,12.5925926 C12.5925926,10.8539184 11.1831187,9.44444444 9.44444444,9.44444444 L3.14814815,9.44444444 C1.40947394,9.44444444 0,10.8539184 0,12.5925926 L0,14.1666667" id="Path" stroke-width="1.6"></path>
                            <circle id="Oval" stroke-width="1.6" cx="6.2962963" cy="3.14814815" r="3.14814815"></circle>
                            <path d="M16.3703704,14.1666667 L16.3703704,12.5925926 C16.3693002,11.1579167 15.3983787,9.90542792 14.0092593,9.54675926" id="Path" stroke-width="1.6"></path>
                            <path d="M10.8611111,0.102314815 C12.2540996,0.458976222 13.2283952,1.7141597 13.2283952,3.15208333 C13.2283952,4.59000697 12.2540996,5.84519044 10.8611111,6.20185185" id="Path" stroke-width="1.6"></path>
                        </g>
                    </g>
                </g>
            </g>
        </g>
    </g>
</svg>