<?xml version="1.0" encoding="UTF-8"?>
<svg width="36px" height="36px" viewBox="0 0 36 36" version="1.1" xmlns="http://www.w3.org/2000/svg" xmlns:xlink="http://www.w3.org/1999/xlink">
    <!-- Generator: sketchtool 58 (101010) - https://sketch.com -->
    <title>75EAEF40-8145-437B-8C81-45EB4AB3AF60</title>
    <desc>Created with sketchtool.</desc>
    <g id="13.-Landing-page---Dashboard" stroke="none" stroke-width="1" fill="none" fill-rule="evenodd">
        <g id="01.-Landing-page" transform="translate(-223.000000, -605.000000)">
            <g id="Group-3" transform="translate(207.000000, 589.000000)">
                <g id="Group" transform="translate(16.000000, 16.000000)">
                    <g id="Icon-/-36px-/-Fundraise">
                        <circle id="Oval" fill="#5149FF" opacity="0.16" cx="18" cy="18" r="18"></circle>
                        <g id="database" stroke-width="1" transform="translate(11.000000, 10.000000)" stroke="#5149FF" stroke-linecap="round" stroke-linejoin="round">
                            <ellipse id="Oval" stroke-width="1.6" cx="7.2" cy="2.4" rx="7.2" ry="2.4"></ellipse>
                            <path d="M0,2.4 L0,13.6 C0,14.928 3.2,16 7.2,16 C11.2,16 14.4,14.928 14.4,13.6 L14.4,2.4" id="Path" stroke-width="1.6"></path>
                            <g id="dollar-sign" transform="translate(6.000000, 7.500000)" stroke-width="0.8">
                                <path d="M1.5,0 L1.5,5.5" id="Path"></path>
                                <path d="M2.75,1 L0.875,1 C0.391750844,1 -8.8817842e-16,1.39175084 -8.8817842e-16,1.875 C-8.8817842e-16,2.35824916 0.391750844,2.75 0.875,2.75 L2.125,2.75 C2.60824915,2.75000001 3,3.14175085 3,3.625 C3,4.10824915 2.60824915,4.5 2.125,4.5 L-8.8817842e-16,4.5" id="Path"></path>
                            </g>
                        </g>
                    </g>
                </g>
            </g>
        </g>
    </g>
</svg>