<?xml version="1.0" encoding="UTF-8"?>
<svg width="118px" height="38px" viewBox="0 0 118 38" version="1.1" xmlns="http://www.w3.org/2000/svg" xmlns:xlink="http://www.w3.org/1999/xlink">
    <!-- Generator: Sketch 48.2 (47327) - http://www.bohemiancoding.com/sketch -->
    <title>Logo</title>
    <desc>Created with Sketch.</desc>
    <defs>
        <polygon id="path-1" points="9.33091473 38 0.0176744186 38 0.0176744186 0.275131783 9.33091473 0.275131783 18.644155 0.275131783 18.644155 38"></polygon>
    </defs>
    <g id="03.-Assets" stroke="none" stroke-width="1" fill="none" fill-rule="evenodd" transform="translate(-504.000000, -108.000000)">
        <g id="Logo" transform="translate(504.000000, 108.000000)">
            <g id="Sign">
                <mask id="mask-2" fill="white">
                    <use xlink:href="#path-1"></use>
                </mask>
                <g id="Clip-7"></g>
                <polyline id="Fill-8" fill="#F9977E" mask="url(#mask-2)" points="9.41251163 38 0 31.9079225 0 6.79168992 9.41251163 0.275131783 0 6.79168992 9.41251163 12.1844496 9.41251163 17.6535039 0 24.1697674 9.41251163 29.5628217 9.41251163 38"></polyline>
                <polyline id="Fill-9" fill="#F9977E" mask="url(#mask-2)" points="9.41251163 12.1844496 9.41251163 0.275131783 18.644155 6.79168992 9.41251163 12.1844496"></polyline>
                <polyline id="Fill-10" fill="#EB7557" mask="url(#mask-2)" points="9.41251163 12.1844496 0 6.79168992 9.41251163 0.275131783 9.41251163 12.1844496"></polyline>
                <polyline id="Fill-11" fill="#F9977E" mask="url(#mask-2)" points="9.41251163 29.5628217 9.41251163 17.6535039 18.644155 24.1697674 9.41251163 29.5628217"></polyline>
                <polyline id="Fill-12" fill="#EB7557" mask="url(#mask-2)" points="9.41251163 29.5628217 0 24.1697674 9.41251163 17.6535039 9.41251163 29.5628217"></polyline>
            </g>
            <g id="Typeface" transform="translate(34.000000, 11.000000)" fill="#262626">
                <polyline id="Fill-1" points="0 19.4028571 3.66514286 19.4028571 3.66514286 11.5197143 10.298 11.5197143 10.298 8.26142857 3.66514286 8.26142857 3.66514286 3.22857143 12.5377143 3.22857143 12.5377143 0 0 0 0 19.4028571"></polyline>
                <path d="M22.3702857,13.1482857 C22.3702857,13.6531429 22.2877143,14.1231429 22.1231429,14.5597143 C21.958,14.9954286 21.7302857,15.3791429 21.4394286,15.7085714 C21.1485714,16.0382857 20.7994286,16.2954286 20.3922857,16.4794286 C19.9848571,16.6642857 19.5485714,16.7554286 19.0831429,16.7554286 C18.3265714,16.7554286 17.7108571,16.5185714 17.2357143,16.0428571 C16.7602857,15.5677143 16.5231429,14.8937143 16.5231429,14.0214286 L16.5231429,5.75942857 L13.0905714,5.75942857 L13.0905714,14.0502857 C13.0905714,15.7762857 13.5365714,17.1482857 14.4288571,18.1668571 C15.3205714,19.1845714 16.62,19.6937143 18.3265714,19.6937143 C18.8694286,19.6937143 19.3545714,19.6351429 19.7811429,19.5194286 C20.2074286,19.4028571 20.5857143,19.2528571 20.9157143,19.0682857 C21.2451429,18.884 21.5362857,18.6857143 21.7882857,18.472 C22.0402857,18.2588571 22.2537143,18.0554286 22.4282857,17.8608571 L22.5157143,19.4028571 L25.8028571,19.4028571 L25.8028571,5.75942857 L22.3702857,5.75942857 L22.3702857,13.1482857" id="Fill-2"></path>
                <path d="M36.6531429,5.46857143 C36.11,5.46857143 35.6248571,5.52714286 35.1988571,5.64342857 C34.772,5.75942857 34.3888571,5.91028571 34.0494286,6.09428571 C33.7102857,6.27914286 33.4191429,6.47714286 33.1768571,6.69057143 C32.934,6.90428571 32.7262857,7.10742857 32.5514286,7.30142857 L32.4642857,5.75942857 L29.1771429,5.75942857 L29.1771429,19.4028571 L32.6094286,19.4028571 L32.6094286,12.014 C32.6094286,11.51 32.692,11.0391429 32.8568571,10.6034286 C33.0214286,10.1671429 33.2497143,9.784 33.5405714,9.45428571 C33.8317143,9.12457143 34.1802857,8.86771429 34.5877143,8.68314286 C34.9948571,8.49885714 35.4314286,8.40685714 35.8968571,8.40685714 C36.6531429,8.40685714 37.2685714,8.64428571 37.744,9.11942857 C38.2191429,9.59542857 38.4565714,10.2685714 38.4565714,11.1411429 L38.4565714,19.4028571 L41.8894286,19.4028571 L41.8894286,11.112 C41.8894286,9.38657143 41.4428571,8.014 40.5511429,6.99628571 C39.6588571,5.97771429 38.3594286,5.46857143 36.6531429,5.46857143" id="Fill-3"></path>
                <path d="M54.6305714,13.3522857 C54.6305714,13.7405714 54.5722857,14.1425714 54.456,14.5597143 C54.3397143,14.9765714 54.1551429,15.3591429 53.9034286,15.7085714 C53.6511429,16.0577143 53.3217143,16.3442857 52.9142857,16.5662857 C52.5068571,16.7897143 52.0125714,16.9011429 51.4305714,16.9011429 C50.3254286,16.9011429 49.4817143,16.5134286 48.8997143,15.7377143 C48.318,14.962 48.0268571,13.9922857 48.0268571,12.8282857 C48.0268571,12.2662857 48.1094286,11.728 48.2745714,11.214 C48.4388571,10.7005714 48.6671429,10.2494286 48.958,9.86114286 C49.2874286,9.43485714 49.6751429,9.09057143 50.1214286,8.82857143 C50.5674286,8.56714286 51.13,8.43571429 51.8088571,8.43571429 C52.4874286,8.43571429 53.0451429,8.48971429 53.4817143,8.596 C53.9177143,8.70285714 54.3005714,8.89171429 54.6305714,9.16342857 L54.6305714,13.3522857 Z M54.6305714,6.07942857 C54.3785714,5.98285714 54.1551429,5.89542857 53.9617143,5.818 C53.7674286,5.74085714 53.5542857,5.67771429 53.3217143,5.62885714 C53.0888571,5.58057143 52.8268571,5.54142857 52.5362857,5.51228571 C52.2451429,5.48314286 51.8765714,5.46857143 51.4305714,5.46857143 C51.1005714,5.46857143 50.7131429,5.51228571 50.2671429,5.59971429 C49.8208571,5.68685714 49.3602857,5.83228571 48.8851429,6.03628571 C48.4097143,6.23971429 47.94,6.49714286 47.4745714,6.80685714 C47.0088571,7.11714286 46.5822857,7.50485714 46.1942857,7.97028571 C45.7288571,8.53285714 45.3408571,9.21657143 45.0308571,10.0214286 C44.7205714,10.826 44.5654286,11.7622857 44.5654286,12.8282857 C44.5654286,13.9537143 44.74,14.9522857 45.0891429,15.8245714 C45.438,16.6977143 45.8937143,17.4348571 46.456,18.0357143 C47.0185714,18.6368571 47.6585714,19.0931429 48.3762857,19.4028571 C49.0937143,19.7128571 49.8208571,19.8685714 50.558,19.8685714 C51.0817143,19.8685714 51.5514286,19.8102857 51.9685714,19.6937143 C52.3854286,19.5774286 52.7637143,19.4317143 53.1034286,19.2574286 C53.4422857,19.0831429 53.7382857,18.8891429 53.9905714,18.6754286 C54.2422857,18.4622857 54.456,18.2588571 54.6305714,18.0642857 L54.7177143,19.4028571 L58.0342857,19.4028571 L58.0342857,0 L54.6305714,0 L54.6305714,6.07942857 Z" id="Fill-4"></path>
                <path d="M68.8845714,5.498 C68.322,5.498 67.8228571,5.56628571 67.3862857,5.70171429 C66.9502857,5.83742857 66.5668571,6.00228571 66.2377143,6.196 C65.9074286,6.39028571 65.6214286,6.60342857 65.3794286,6.836 C65.1365714,7.06885714 64.938,7.282 64.7828571,7.476 L64.6957143,5.75942857 L61.4082857,5.75942857 L61.4082857,19.4028571 L64.8411429,19.4028571 L64.8411429,12.0431429 C64.8411429,11.5388571 64.9328571,11.0831429 65.1177143,10.6762857 C65.3014286,10.2685714 65.5488571,9.91971429 65.8591429,9.62885714 C66.1691429,9.33771429 66.5377143,9.11485714 66.9648571,8.95971429 C67.3911429,8.80457143 67.8374286,8.72657143 68.3028571,8.72657143 C68.6322857,8.72657143 68.9182857,8.74657143 69.1611429,8.78542857 C69.3728571,8.81914286 69.5805714,8.87914286 69.7851429,8.95771429 L69.7851429,5.55885714 L69.772,5.556 C69.51,5.51742857 69.2142857,5.498 68.8845714,5.498" id="Fill-5"></path>
                <path d="M80.2877143,14.5737143 C80.2877143,14.9234286 80.1954286,15.2528571 80.0114286,15.5631429 C79.8268571,15.8734286 79.5897143,16.1445714 79.2985714,16.3777143 C79.008,16.61 78.6731429,16.7948571 78.2954286,16.93 C77.9171429,17.066 77.5245714,17.134 77.1171429,17.134 C76.3022857,17.134 75.6865714,16.9691429 75.2697143,16.6391429 C74.8525714,16.31 74.6442857,15.8537143 74.6442857,15.2722857 C74.6442857,14.7097143 74.8671429,14.21 75.3134286,13.7742857 C75.7594286,13.3377143 76.5351429,13.1194286 77.6405714,13.1194286 C77.8537143,13.1194286 78.1105714,13.1245714 78.4114286,13.134 C78.712,13.1437143 78.9977143,13.1585714 79.2697143,13.1774286 C79.5991429,13.1971429 79.9385714,13.2165714 80.2877143,13.236 L80.2877143,14.5737143 Z M83.1674286,8.24714286 C82.8957143,7.63628571 82.5082857,7.11228571 82.004,6.67628571 C81.4997143,6.23971429 80.8937143,5.90057143 80.186,5.65771429 C79.4777143,5.41571429 78.688,5.294 77.8148571,5.294 L73.4805714,5.294 L73.4805714,8.14485714 L77.3497143,8.14485714 C78.2225714,8.14485714 78.93,8.33914286 79.4734286,8.72657143 C80.0157143,9.11485714 80.2877143,9.648 80.2877143,10.3265714 L80.2877143,10.6465714 C79.9191429,10.628 79.5605714,10.6077143 79.2114286,10.5885714 C78.9011429,10.5694286 78.5811429,10.5551429 78.2514286,10.5448571 C77.9214286,10.5354286 77.6208571,10.5305714 77.3497143,10.5305714 C76.4574286,10.5305714 75.6428571,10.6374286 74.906,10.8505714 C74.1688571,11.0642857 73.5388571,11.3791429 73.0151429,11.796 C72.4917143,12.2131429 72.0842857,12.7265714 71.7934286,13.3377143 C71.5025714,13.9485714 71.3571429,14.642 71.3571429,15.4177143 C71.3571429,16.1737143 71.4977143,16.8337143 71.7791429,17.3954286 C72.06,17.9582857 72.4285714,18.4188571 72.8842857,18.7777143 C73.3397143,19.1362857 73.8445714,19.4028571 74.3968571,19.5774286 C74.9497143,19.7517143 75.5071429,19.8394286 76.0697143,19.8394286 C77.0008571,19.8394286 77.8442857,19.6648571 78.6002857,19.3154286 C79.3568571,18.9662857 79.9191429,18.5691429 80.2877143,18.1228571 L80.3751429,19.4028571 L83.5748571,19.4028571 L83.5748571,10.2394286 C83.5748571,9.52257143 83.4391429,8.85742857 83.1674286,8.24714286 Z" id="Fill-6"></path>
            </g>
        </g>
    </g>
</svg>