<svg width="18px" height="15px" viewBox="0 0 18 15" version="1.1" xmlns="http://www.w3.org/2000/svg" xmlns:xlink="http://www.w3.org/1999/xlink">
  <g id="X-07.-Nonprofit-profile-X" stroke="none" stroke-width="1">
    <g id="Nonprofit-Profile---Programs-Budget-Descriptions" transform="translate(-1297.000000, -175.000000)">
      <g id="Twitter" transform="translate(1273.000000, 163.000000)">
        <path d="M42.001,13.731 C41.331,14.025 40.618,14.219 39.875,14.314 C40.64,13.857 41.224,13.139 41.499,12.274 C40.786,12.699 39.998,13 39.159,13.168 C38.48,12.447 37.515,12 36.462,12 C34.419,12 32.774,13.658 32.774,15.691 C32.774,15.984 32.798,16.265 32.859,16.533 C29.791,16.384 27.076,14.913 25.253,12.673 C24.936,13.226 24.748,13.858 24.748,14.538 C24.748,15.816 25.406,16.949 26.388,17.605 C25.795,17.593 25.213,17.421 24.721,17.15 C24.721,17.162 24.721,17.175 24.721,17.19 C24.721,18.984 26,20.473 27.678,20.816 C27.377,20.9 27.049,20.939 26.709,20.939 C26.473,20.939 26.234,20.925 26.011,20.876 C26.49,22.338 27.846,23.412 29.459,23.447 C28.203,24.429 26.609,25.021 24.883,25.021 C24.58,25.021 24.29,25.007 24,24.97 C25.635,26.024 27.572,26.626 29.662,26.626 C36.453,26.626 40.166,21 40.166,16.124 C40.166,15.961 40.16,15.804 40.152,15.647 C40.884,15.127 41.499,14.478 42.001,13.731 Z" id="Shape"></path>
      </g>
    </g>
  </g>
</svg>
