<?xml version="1.0" encoding="UTF-8"?>
<svg width="16px" height="19px" viewBox="0 0 16 19" version="1.1" xmlns="http://www.w3.org/2000/svg" xmlns:xlink="http://www.w3.org/1999/xlink">
    <!-- Generator: sketchtool 58 (101010) - https://sketch.com -->
    <title>1B752CE4-E4FE-46C1-AF89-8709226374DD</title>
    <desc>Created with sketchtool.</desc>
    <g id="13.-Landing-page---Dashboard" stroke="none" stroke-width="1" fill="none" fill-rule="evenodd">
        <g id="01.-Landing-page" transform="translate(-235.000000, -528.000000)">
            <g id="Group-5" transform="translate(206.000000, 433.000000)">
                <g id="Group-2-Copy-4" transform="translate(25.000000, 92.000000)">
                    <g id="Icon-/-24px-/-Variance">
                        <rect id="Base" fill="#FFFFFF" opacity="0" x="0" y="0" width="24" height="24"></rect>
                        <g id="Group" stroke-width="1" transform="translate(5.000000, 4.000000)" stroke="#262626" stroke-linecap="round" stroke-linejoin="round">
                            <g id="file" stroke-width="1.6">
                                <path d="M7.65,0 L1.7,0 C0.761115925,0 0,0.761115925 0,1.7 L0,15.3 C0,16.2388841 0.761115925,17 1.7,17 L11.9,17 C12.8388841,17 13.6,16.2388841 13.6,15.3 L13.6,5.95 L7.65,0 Z" id="Path"></path>
                                <polyline id="Path" points="7.65 0 7.65 5.95 13.6 5.95"></polyline>
                            </g>
                            <g id="shuffle" transform="translate(3.400000, 5.950000)" stroke-width="1.4">
                                <path d="M0,7.225 L5.525,2.125" id="Path"></path>
                                <polyline id="Path" points="7.65 5.525 7.65 7.65 5.525 7.65"></polyline>
                                <path d="M5.1,5.1 L7.65,7.65" id="Path"></path>
                                <path d="M0,0.425 L2.125,2.55" id="Path"></path>
                            </g>
                        </g>
                    </g>
                </g>
            </g>
        </g>
    </g>
</svg>